<svg width="512" height="512" viewBox="0 0 512 512" xmlns="http://www.w3.org/2000/svg">
  <path d="M256 34 420 99v123c0 118-63 203-164 268C155 425 92 340 92 222V99L256 34Z" fill="#ffc904"/>
  <path d="M256 76 382 126v97c0 91-45 158-126 213-81-55-126-122-126-213v-97L256 76Z" fill="#050505"/>
  <path d="M191 157h51v73l67-73h58l-82 90 91 123h-61l-65-89-8 8v81h-51V157Z" fill="#ffc904"/>
  <path d="M130 126 256 34l126 92-126 43-126-43Z" fill="#f7d97a" opacity=".9"/>
  <path d="M256 54v382" stroke="#ffc904" stroke-width="14" opacity=".25"/>
</svg>
