<svg xmlns="http://www.w3.org/2000/svg" viewBox="0 0 96 96" role="img" aria-label="Knight Planner">
  <defs>
    <linearGradient id="gold" x1="20" y1="8" x2="78" y2="88" gradientUnits="userSpaceOnUse">
      <stop offset="0" stop-color="#fff3a6"/>
      <stop offset="0.35" stop-color="#ffc904"/>
      <stop offset="1" stop-color="#b88900"/>
    </linearGradient>
    <linearGradient id="steel" x1="30" y1="18" x2="68" y2="70" gradientUnits="userSpaceOnUse">
      <stop offset="0" stop-color="#f5f7fb"/>
      <stop offset="0.45" stop-color="#8f98a5"/>
      <stop offset="1" stop-color="#242936"/>
    </linearGradient>
  </defs>
  <path
    d="M48 5 84 19v26c0 23.5-13.7 38.8-36 46-22.3-7.2-36-22.5-36-46V19L48 5Z"
    fill="#090b10"
    stroke="url(#gold)"
    stroke-width="5"
    stroke-linejoin="round"
  />
  <path
    d="M30 39c2.4-13.6 13.8-23 29.1-22.1 9.7.6 17.5 5 21.9 12.1-8.4-4.4-18.7-5.1-30.8-2.1-8.3 2-14.7 6-20.2 12.1Z"
    fill="url(#steel)"
  />
  <path
    d="M26 44h48l-7 25H36L26 44Z"
    fill="#0b0d13"
    stroke="url(#gold)"
    stroke-width="4"
    stroke-linejoin="round"
  />
  <path d="M31 47h38L60 56H38l-7-9Z" fill="#ffc904"/>
  <path d="M38 61h22" stroke="#ffc904" stroke-width="4" stroke-linecap="round"/>
  <path d="M42 68h12" stroke="#ffc904" stroke-width="4" stroke-linecap="round"/>
</svg>
