<svg width="64" height="64" viewBox="0 0 64 64" fill="none" xmlns="http://www.w3.org/2000/svg" role="img" aria-label="Knight Planner">
  <defs>
    <linearGradient id="gold" x1="12" y1="6" x2="51" y2="58" gradientUnits="userSpaceOnUse">
      <stop stop-color="#FFEFA6"/>
      <stop offset=".48" stop-color="#FFC904"/>
      <stop offset="1" stop-color="#B88900"/>
    </linearGradient>
  </defs>
  <path d="M32 5.5 53 13.4v16.2c0 13.4-8.1 22.5-21 29-12.9-6.5-21-15.6-21-29V13.4l21-7.9Z" fill="#0B0F17" stroke="url(#gold)" stroke-width="4"/>
  <path d="M32 14.4 44.7 19v11c0 8-4.7 13.9-12.7 18.3C24 43.9 19.3 38 19.3 30V19L32 14.4Z" fill="#111827" stroke="#FFC904" stroke-width="2"/>
  <path d="M25.5 25.1 32 20.8l6.5 4.3v13.7L32 43.2l-6.5-4.4V25.1Z" fill="#FFC904"/>
  <path d="M31 24.8h4.1v6.4l5.8-6.4h5.2l-7.5 8.1 7.6 11.4H41l-5.3-8-2.2 2.3v5.7H31V24.8Z" fill="#0B0F17"/>
  <path d="M22.7 26.2 28 22.7v6.2l-2 1.5v7.2l-3.3-2.2v-9.2Z" fill="#0B0F17"/>
</svg>
