<svg width="64" height="64" viewBox="0 0 64 64" fill="none" xmlns="http://www.w3.org/2000/svg" role="img" aria-label="Knight Planner">
  <defs>
    <linearGradient id="gold" x1="7" y1="5" x2="57" y2="59" gradientUnits="userSpaceOnUse">
      <stop stop-color="#FFEFA6"/>
      <stop offset="0.45" stop-color="#FFC904"/>
      <stop offset="1" stop-color="#B98400"/>
    </linearGradient>
    <linearGradient id="ink" x1="12" y1="8" x2="52" y2="55" gradientUnits="userSpaceOnUse">
      <stop stop-color="#151B27"/>
      <stop offset="1" stop-color="#070A10"/>
    </linearGradient>
  </defs>
  <path d="M32 5.5L55.5 14.2V30.8C55.5 44.1 46.2 53.1 32 59C17.8 53.1 8.5 44.1 8.5 30.8V14.2L32 5.5Z" fill="url(#ink)" stroke="url(#gold)" stroke-width="4"/>
  <path d="M32 14.2L46.2 19.6V31.2C46.2 39.3 40.8 45.2 32 49.2C23.2 45.2 17.8 39.3 17.8 31.2V19.6L32 14.2Z" fill="#0B0F17" stroke="#FFC904" stroke-width="2"/>
  <path d="M23.5 25L32 19.4L40.5 25V35.5L32 41.5L23.5 35.5V25Z" fill="#FFC904"/>
  <path d="M29.2 22.7H34V31.1L42 22.9H48.1L39 32.3L48.2 46H42.2L35.8 36.3L34 38.2V46H29.2V22.7Z" fill="#070A10"/>
  <path d="M21.5 25.8L27.8 21.8V28.4L25.2 30.2V38L21.5 35.4V25.8Z" fill="#070A10"/>
  <path d="M46.6 19.8L55.1 17L60 21.4L52.1 28.7L46.6 24.3V19.8Z" fill="#FFC904"/>
</svg>
